<?xml version="1.0" encoding="UTF-8"?>
<svg version="1.1" viewBox="0 0 2048 2048" width="512" height="512" xmlns="http://www.w3.org/2000/svg">
<path transform="translate(155,565)" d="m0 0h547l28 2 25 4 22 6 21 8 16 8 17 10 13 10 10 9 8 7 12 13 11 14 7 10 12 19 12 22 11 24 10 24 12 30 10 24 11 24 8 14 9 12 7 7 10 6 8 3 4 1 99 1h764l24 1 16 3 16 6 15 8 11 8 10 9 10 11 9 14 8 17 5 19 1 7 1 19v721l-1 97-2 14-7 21-8 15-10 14-13 13-10 7-10 6-10 5-18 6-19 3h-1748l-18-3-18-6-15-8-12-9-12-11-11-14-8-14-5-11-4-14-2-12-1-13v-1128l2-19 5-18 8-17 8-12 7-9 5-5 13-11 16-10 14-6 15-4zm845 405-33 3-30 5-36 9-32 11-26 11-24 12-19 11-21 14-14 10-16 13-14 12-10 10-4 3v2l-4 2-7 8-13 14-22 28-16 24-10 17-10 19-11 23-11 29-9 30-5 22-4 21-3 23-2 34v19l2 33 5 36 6 27 9 31 12 32 16 33 10 18 12 19 12 17 13 16 9 11 12 13 24 24 8 7 11 9 17 13 16 11 21 13 16 9 21 10 19 8 25 9 27 8 33 7 39 5 12 1h44l40-4 33-6 31-8 29-10 28-12 22-11 27-16 12-8 18-13 16-13 12-11 10-9 18-18 7-8 1-3h2l11-14 10-13 13-19 11-18 12-22 11-23 10-26 8-25 7-28 4-21 4-31 1-14v-52l-4-38-7-36-7-26-10-29-13-30-10-20-16-27-13-19-13-17-12-14-9-10-7-8-12-12-8-7-15-13-18-14-20-14-20-12-22-12-28-13-27-10-26-8-31-7-26-4-17-2-16-1z"/>
<path transform="translate(399,327)" d="m0 0h1402l15 2 12 4 12 6 11 8 10 9 9 11 8 14 6 14 3 12 2 21v409l-5 2h-860l-5-2-7-8-9-15-13-28-25-62-11-25-11-22-16-27-12-17-10-13-11-12-7-8-13-12-14-11-18-12-16-9-17-8-22-8-28-7-27-4-31-2-168-1h-219l-1-1v-107l4-20 6-16 7-12 8-11 12-12 10-7 16-8 9-3z"/>
<path transform="translate(261,126)" d="m0 0h1519l22 1 15 3 15 5 12 6 12 8 12 11 8 10 6 10 5 14 2 16v118l-4-2-7-7-14-10-14-8-15-6-15-4-16-2h-1406l-17 2-15 4-12 5-15 8-12 9-10 9-8 8-12 17-10 19-6 17-4 16-2 21-1 101-1 1h-114l-1-22v-216l1-85 4-16 7-14 8-11 11-11 14-10 17-8 13-4 12-2z"/>
<path transform="translate(1015,1470)" d="m0 0h17l33 2 29 4 29 6 31 9 33 13 27 13 21 12 21 14 16 12 11 9 13 11 17 16 1 3h2l7 8 10 11 9 11-1 5-9 11-7 9-12 14-29 29-11 9-15 12-19 13-21 13-29 15-26 11-27 9-32 8-29 5-31 3h-42l-37-4-27-5-30-8-26-9-27-12-27-14-24-15-16-12-16-13-10-9-2-1v-2l-4-2-21-21-7-8-14-17-8-11 1-4 12-14 7-8 11-12 10-10 8-7 15-13 19-14 24-16 21-12 24-12 33-13 30-9 26-6 35-5z"/>
<path transform="translate(1009,1075)" d="m0 0h30l19 3 18 5 18 8 16 9 16 12 11 10 7 8 10 13 11 19 8 19 5 18 2 12 1 12v17l-2 19-4 17-4 12-7 16-9 15-9 12-9 10-11 11-18 13-21 11-24 8-14 3-19 2h-14l-24-3-21-6-16-7-15-8-16-12-12-11-11-12-12-17-9-17-7-19-5-22-1-8v-30l3-18 4-15 5-14 8-16 7-11 9-12 14-15 12-10 15-10 17-9 24-8 15-3z"/>
</svg>
